<svg height="463pt" viewBox="0 -7 463.9557 463" width="463pt" 
    xmlns="http://www.w3.org/2000/svg">
    <path fill="hsl(120, 100%, 30%)" d="m183.957031 448.484375h96v-40c-.023437-22.082031-17.917969-39.972656-40-40h-16c-22.078125.027344-39.972656 17.917969-40 40zm0 0"/>
    <path fill="hsl(0, 100%, 30%)" d="m39.957031 448.484375h96v-40c-.023437-22.082031-17.917969-39.972656-40-40h-16c-22.078125.027344-39.972656 17.917969-40 40zm0 0"/>
    <path fill="hsl(240, 100%, 30%)" d="m327.957031 448.484375h96v-40c-.023437-22.082031-17.917969-39.972656-40-40h-16c-22.078125.027344-39.972656 17.917969-40 40zm0 0"/>
    <path fill="hsl(60, 100%, 50%)" d="m231.957031 96.484375c-23.824219.015625-44.035156 17.507813-47.464843 41.085937-3.433594 23.578126 10.953124 46.105469 33.785156 52.914063 3.371094 1.042969 5.671875 4.152344 5.679687 7.679687v10.320313h16v-10.320313c.011719-3.527343 2.3125-6.636718 5.683594-7.679687 22.832031-6.808594 37.21875-29.335937 33.785156-52.914063-3.429687-23.578124-23.640625-41.070312-47.46875-41.085937zm0 24c-13.238281.039063-23.957031 10.761719-24 24h-16c0-22.09375 17.910157-40 40-40zm0 0"/>
    <path fill="hsl(180, 100%, 50%)" d="m381.878906 98.882812c-9.167968-50.363281-49.304687-89.347656-99.917968-97.042968-50.609376-7.695313-100.519532 17.597656-124.242188 62.964844-1.921875-.160157-3.839844-.320313-5.761719-.320313-48.140625.027344-88.820312 35.710937-95.117187 83.4375-32.542969 9.84375-55.308594 39.175781-56.7656252 73.144531-1.4609378 33.964844 18.7070312 65.140625 50.2851562 77.738282 6.113281-16.84375 22.679687-27.570313 40.550781-26.246094 17.871094 1.320312 32.679688 14.363281 36.25 31.925781h65.597656c3.785157-18.644531 20.179688-32.039063 39.199219-32.039063 19.023438 0 35.417969 13.394532 39.203125 32.039063h65.597656c3.300782-16.085937 16.089844-28.519531 32.261719-31.359375 16.167969-2.84375 32.433594 4.484375 41.019531 18.480469 38.039063-20.886719 59.097657-63.199219 52.824219-106.136719-6.273437-42.9375-38.5625-77.460938-80.984375-86.585938zm-157.921875-42.398437h16v16h-16zm-64 96h-16v-16h16zm15.441407-75.921875 11.28125 11.359375-11.28125 11.28125-11.359376-11.28125zm80.558593 127.28125v4.640625h16v16h-16v16c0 4.417969-3.578125 8-8 8h-8v8h-16v-8h-8c-4.417969 0-8-3.582031-8-8v-16h-16v-16h16v-4.640625c-28.394531-11.488281-44.671875-41.484375-38.820312-71.554688 5.851562-30.070312 32.1875-51.773437 62.820312-51.773437 30.632813 0 56.972657 21.703125 62.824219 51.773437 5.851562 30.070313-10.425781 60.066407-38.824219 71.554688zm32.5625-104.640625-11.28125-11.28125 11.28125-11.359375 11.359375 11.359375zm31.4375 53.28125h-16v-16h16zm0 0"/>
    <path fill="hsl(60, 100%, 50%)" d="m223.957031 224.484375h16v8h-16zm0 0"/>
    <path fill="hsl(120, 100%, 30%)" d="m255.957031 312.484375c0 13.253906-10.742187 24-24 24-13.253906 0-24-10.746094-24-24s10.746094-24 24-24c13.257813 0 24 10.746094 24 24zm0 0"/>
    <path fill="hsl(0, 100%, 30%)" d="m111.957031 312.484375c0 13.253906-10.742187 24-24 24-13.253906 0-24-10.746094-24-24s10.746094-24 24-24c13.257813 0 24 10.746094 24 24zm0 0"/>
    <path fill="hsl(240, 100%, 30%)" d="m399.957031 312.484375c0 13.253906-10.742187 24-24 24-13.253906 0-24-10.746094-24-24s10.746094-24 24-24c13.257813 0 24 10.746094 24 24zm0 0"/>
</svg>